<?xml version="1.0" encoding="UTF-8"?>
<svg version="1.1" xmlns="http://www.w3.org/2000/svg" width="275" height="183">
<path d="M0 0 C90.75 0 181.5 0 275 0 C275 60.39 275 120.78 275 183 C184.25 183 93.5 183 0 183 C0 122.61 0 62.22 0 0 Z " fill="#A78FFD" transform="translate(0,0)"/>
<path d="M0 0 C8.25 0 16.5 0 25 0 C25.495 7.92 25.495 7.92 26 16 C27.52625 16.474375 29.0525 16.94875 30.625 17.4375 C31.48351562 17.70433594 32.34203125 17.97117187 33.2265625 18.24609375 C39.0869982 20.10684023 39.0869982 20.10684023 44.7734375 18.56640625 C45.63195312 17.90511719 46.49046875 17.24382813 47.375 16.5625 C48.24898438 15.90378906 49.12296875 15.24507812 50.0234375 14.56640625 C50.67570312 14.04949219 51.32796875 13.53257813 52 13 C58.41069287 18.27101414 64.18590512 24.09128152 70 30 C69.60167969 30.51949219 69.20335937 31.03898437 68.79296875 31.57421875 C67.69935744 33.01374118 66.61908599 34.46347331 65.55078125 35.921875 C64 38 64 38 61.875 40.4375 C60.76380342 43.69171855 61.43463181 44.60813621 62.8125 47.6875 C63.21082031 48.45449219 63.60914063 49.22148438 64.01953125 50.01171875 C65 52 65 52 65 54 C66.14339844 54.13277344 67.28679687 54.26554687 68.46484375 54.40234375 C69.9557562 54.5805031 71.44664018 54.75890082 72.9375 54.9375 C73.69224609 55.02451172 74.44699219 55.11152344 75.22460938 55.20117188 C80.88671875 55.88671875 80.88671875 55.88671875 82 57 C82.08737645 58.85369611 82.10698153 60.71067541 82.09765625 62.56640625 C82.09443359 63.69111328 82.09121094 64.81582031 82.08789062 65.97460938 C82.07951172 67.15861328 82.07113281 68.34261719 82.0625 69.5625 C82.05798828 70.75037109 82.05347656 71.93824219 82.04882812 73.16210938 C82.03699675 76.10812226 82.02051287 79.05403681 82 82 C81.02417969 82.06058594 80.04835937 82.12117188 79.04296875 82.18359375 C77.77066406 82.26738281 76.49835938 82.35117188 75.1875 82.4375 C73.29064453 82.55931641 73.29064453 82.55931641 71.35546875 82.68359375 C68.00818107 82.87184547 68.00818107 82.87184547 65 84 C63.71286039 86.17960913 63.71286039 86.17960913 62.75 88.8125 C62.39421875 89.68519531 62.0384375 90.55789062 61.671875 91.45703125 C60.92079424 94.2997846 60.86243606 95.31823163 62 98 C63.29354379 99.95809166 64.65443173 101.87257564 66.0625 103.75 C66.79597656 104.73484375 67.52945313 105.7196875 68.28515625 106.734375 C68.85105469 107.48203125 69.41695313 108.2296875 70 109 C68.6415798 112.04332765 67.11536976 114.12309151 64.7421875 116.453125 C64.11699219 117.071875 63.49179688 117.690625 62.84765625 118.328125 C62.19667969 118.96234375 61.54570312 119.5965625 60.875 120.25 C60.21628906 120.8996875 59.55757813 121.549375 58.87890625 122.21875 C57.25703357 123.81711727 55.6306719 125.41061897 54 127 C50.17858554 125.6952883 47.89297131 124.16612445 45.0625 121.3125 C42.02643843 118.46832115 42.02643843 118.46832115 38 117.875 C37.01 118.24625 36.02 118.6175 35 119 C33.98873047 119.11601562 33.98873047 119.11601562 32.95703125 119.234375 C30.28117868 119.72177984 29.02077008 120.14017621 27 122 C25.72786612 125.90353409 25.03033975 129.67059236 24.47265625 133.7265625 C24 137 24 137 23 138 C21.21928754 138.08726223 19.4351686 138.10699041 17.65234375 138.09765625 C16.57275391 138.09443359 15.49316406 138.09121094 14.38085938 138.08789062 C13.24455078 138.07951172 12.10824219 138.07113281 10.9375 138.0625 C9.79732422 138.05798828 8.65714844 138.05347656 7.48242188 138.04882812 C4.65489649 138.03699747 1.8274736 138.0205141 -1 138 C-1.13277344 137.01257813 -1.26554687 136.02515625 -1.40234375 135.0078125 C-1.57894531 133.72648438 -1.75554687 132.44515625 -1.9375 131.125 C-2.11152344 129.84882813 -2.28554687 128.57265625 -2.46484375 127.2578125 C-2.81433227 124.12440546 -2.81433227 124.12440546 -4 122 C-6.16080902 120.78711647 -6.16080902 120.78711647 -8.75 119.75 C-10.04164062 119.18539062 -10.04164062 119.18539062 -11.359375 118.609375 C-14.6962777 117.83932053 -16.00978442 118.40202879 -19 120 C-20.4723278 120.9918299 -21.91248935 122.03346627 -23.3125 123.125 C-24.00988281 123.66382813 -24.70726562 124.20265625 -25.42578125 124.7578125 C-25.94527344 125.16773438 -26.46476562 125.57765625 -27 126 C-30.04332765 124.6415798 -32.12309151 123.11536976 -34.453125 120.7421875 C-35.38125 119.80439453 -35.38125 119.80439453 -36.328125 118.84765625 C-36.96234375 118.19667969 -37.5965625 117.54570312 -38.25 116.875 C-38.8996875 116.21628906 -39.549375 115.55757813 -40.21875 114.87890625 C-41.81711727 113.25703357 -43.41061897 111.6306719 -45 110 C-43.75705525 106.45912326 -42.44896647 104.15525364 -39.8125 101.5 C-37.42313129 98.9301162 -37.42313129 98.9301162 -36.9375 95.5625 C-37.288125 94.716875 -37.63875 93.87125 -38 93 C-38.07605469 92.34644531 -38.15210937 91.69289063 -38.23046875 91.01953125 C-38.7234623 88.33979404 -39.1593725 87.04464886 -41 85 C-44.86981924 83.72169443 -48.60345213 83.02935747 -52.62890625 82.47265625 C-56 82 -56 82 -58 81 C-58 73.08 -58 65.16 -58 57 C-54.95786733 55.47893366 -51.71952428 55.62570662 -48.375 55.4375 C-47.66859375 55.39431641 -46.9621875 55.35113281 -46.234375 55.30664062 C-44.48981463 55.20055249 -42.74493303 55.09977111 -41 55 C-40.87753906 54.07574219 -40.75507812 53.15148437 -40.62890625 52.19921875 C-40 49 -40 49 -37.9375 45.8125 C-36.54066364 42.0470438 -36.54066364 42.0470438 -38.62109375 39.25 C-40.1099285 37.30961225 -41.65050911 35.40773937 -43.2421875 33.55078125 C-45 31 -45 31 -44.82104492 29.07006836 C-43.82071321 26.54797126 -42.56167393 25.21978299 -40.62109375 23.328125 C-39.61079102 22.33232422 -39.61079102 22.33232422 -38.58007812 21.31640625 C-37.87302734 20.63449219 -37.16597656 19.95257813 -36.4375 19.25 C-35.72658203 18.55261719 -35.01566406 17.85523437 -34.28320312 17.13671875 C-32.52869286 15.4175342 -30.76756648 13.70574128 -29 12 C-26.0185288 13.42306228 -23.97627435 14.86382277 -21.625 17.1875 C-18.78329466 19.70217402 -18.78329466 19.70217402 -15 20.0625 C-11.58853282 18.85427204 -8.31987703 17.44070135 -5 16 C-4.01 16 -3.02 16 -2 16 C-1.90912109 14.77023438 -1.90912109 14.77023438 -1.81640625 13.515625 C-1.73261719 12.43796875 -1.64882812 11.3603125 -1.5625 10.25 C-1.48128906 9.18265625 -1.40007812 8.1153125 -1.31640625 7.015625 C-1 4 -1 4 0 0 Z " fill="#A78FFD" transform="translate(126,23)"/>
<path d="M0 0 C8.25 0 16.5 0 25 0 C25.495 7.92 25.495 7.92 26 16 C27.52625 16.474375 29.0525 16.94875 30.625 17.4375 C31.48351562 17.70433594 32.34203125 17.97117187 33.2265625 18.24609375 C39.0869982 20.10684023 39.0869982 20.10684023 44.7734375 18.56640625 C45.63195312 17.90511719 46.49046875 17.24382813 47.375 16.5625 C48.24898438 15.90378906 49.12296875 15.24507812 50.0234375 14.56640625 C50.67570312 14.04949219 51.32796875 13.53257813 52 13 C58.41069287 18.27101414 64.18590512 24.09128152 70 30 C69.60167969 30.51949219 69.20335937 31.03898437 68.79296875 31.57421875 C67.69935744 33.01374118 66.61908599 34.46347331 65.55078125 35.921875 C64 38 64 38 61.875 40.4375 C60.76380342 43.69171855 61.43463181 44.60813621 62.8125 47.6875 C63.21082031 48.45449219 63.60914063 49.22148438 64.01953125 50.01171875 C65 52 65 52 65 54 C66.14339844 54.13277344 67.28679687 54.26554687 68.46484375 54.40234375 C69.9557562 54.5805031 71.44664018 54.75890082 72.9375 54.9375 C73.69224609 55.02451172 74.44699219 55.11152344 75.22460938 55.20117188 C80.88671875 55.88671875 80.88671875 55.88671875 82 57 C82.08737645 58.85369611 82.10698153 60.71067541 82.09765625 62.56640625 C82.09443359 63.69111328 82.09121094 64.81582031 82.08789062 65.97460938 C82.07951172 67.15861328 82.07113281 68.34261719 82.0625 69.5625 C82.05798828 70.75037109 82.05347656 71.93824219 82.04882812 73.16210938 C82.03699675 76.10812226 82.02051287 79.05403681 82 82 C81.02417969 82.06058594 80.04835937 82.12117188 79.04296875 82.18359375 C77.77066406 82.26738281 76.49835938 82.35117188 75.1875 82.4375 C73.29064453 82.55931641 73.29064453 82.55931641 71.35546875 82.68359375 C68.00818107 82.87184547 68.00818107 82.87184547 65 84 C63.71286039 86.17960913 63.71286039 86.17960913 62.75 88.8125 C62.39421875 89.68519531 62.0384375 90.55789062 61.671875 91.45703125 C60.92079424 94.2997846 60.86243606 95.31823163 62 98 C63.29354379 99.95809166 64.65443173 101.87257564 66.0625 103.75 C66.79597656 104.73484375 67.52945313 105.7196875 68.28515625 106.734375 C68.85105469 107.48203125 69.41695313 108.2296875 70 109 C68.6415798 112.04332765 67.11536976 114.12309151 64.7421875 116.453125 C64.11699219 117.071875 63.49179688 117.690625 62.84765625 118.328125 C62.19667969 118.96234375 61.54570312 119.5965625 60.875 120.25 C60.21628906 120.8996875 59.55757813 121.549375 58.87890625 122.21875 C57.25703357 123.81711727 55.6306719 125.41061897 54 127 C50.17858554 125.6952883 47.89297131 124.16612445 45.0625 121.3125 C42.02643843 118.46832115 42.02643843 118.46832115 38 117.875 C37.01 118.24625 36.02 118.6175 35 119 C33.98873047 119.11601562 33.98873047 119.11601562 32.95703125 119.234375 C30.28117868 119.72177984 29.02077008 120.14017621 27 122 C25.72786612 125.90353409 25.03033975 129.67059236 24.47265625 133.7265625 C24 137 24 137 23 138 C21.21928754 138.08726223 19.4351686 138.10699041 17.65234375 138.09765625 C16.57275391 138.09443359 15.49316406 138.09121094 14.38085938 138.08789062 C13.24455078 138.07951172 12.10824219 138.07113281 10.9375 138.0625 C9.79732422 138.05798828 8.65714844 138.05347656 7.48242188 138.04882812 C4.65489649 138.03699747 1.8274736 138.0205141 -1 138 C-1.13277344 137.01257813 -1.26554687 136.02515625 -1.40234375 135.0078125 C-1.57894531 133.72648438 -1.75554687 132.44515625 -1.9375 131.125 C-2.11152344 129.84882813 -2.28554687 128.57265625 -2.46484375 127.2578125 C-2.81433227 124.12440546 -2.81433227 124.12440546 -4 122 C-6.16080902 120.78711647 -6.16080902 120.78711647 -8.75 119.75 C-10.04164062 119.18539062 -10.04164062 119.18539062 -11.359375 118.609375 C-14.6962777 117.83932053 -16.00978442 118.40202879 -19 120 C-20.4723278 120.9918299 -21.91248935 122.03346627 -23.3125 123.125 C-24.00988281 123.66382813 -24.70726562 124.20265625 -25.42578125 124.7578125 C-25.94527344 125.16773438 -26.46476562 125.57765625 -27 126 C-30.04332765 124.6415798 -32.12309151 123.11536976 -34.453125 120.7421875 C-35.38125 119.80439453 -35.38125 119.80439453 -36.328125 118.84765625 C-36.96234375 118.19667969 -37.5965625 117.54570312 -38.25 116.875 C-38.8996875 116.21628906 -39.549375 115.55757813 -40.21875 114.87890625 C-41.81711727 113.25703357 -43.41061897 111.6306719 -45 110 C-43.75705525 106.45912326 -42.44896647 104.15525364 -39.8125 101.5 C-37.42313129 98.9301162 -37.42313129 98.9301162 -36.9375 95.5625 C-37.288125 94.716875 -37.63875 93.87125 -38 93 C-38.07605469 92.34644531 -38.15210937 91.69289063 -38.23046875 91.01953125 C-38.7234623 88.33979404 -39.1593725 87.04464886 -41 85 C-44.86981924 83.72169443 -48.60345213 83.02935747 -52.62890625 82.47265625 C-56 82 -56 82 -58 81 C-58 73.08 -58 65.16 -58 57 C-54.95786733 55.47893366 -51.71952428 55.62570662 -48.375 55.4375 C-47.66859375 55.39431641 -46.9621875 55.35113281 -46.234375 55.30664062 C-44.48981463 55.20055249 -42.74493303 55.09977111 -41 55 C-40.87753906 54.07574219 -40.75507812 53.15148437 -40.62890625 52.19921875 C-40 49 -40 49 -37.9375 45.8125 C-36.54066364 42.0470438 -36.54066364 42.0470438 -38.62109375 39.25 C-40.1099285 37.30961225 -41.65050911 35.40773937 -43.2421875 33.55078125 C-45 31 -45 31 -44.82104492 29.07006836 C-43.82071321 26.54797126 -42.56167393 25.21978299 -40.62109375 23.328125 C-39.61079102 22.33232422 -39.61079102 22.33232422 -38.58007812 21.31640625 C-37.87302734 20.63449219 -37.16597656 19.95257813 -36.4375 19.25 C-35.72658203 18.55261719 -35.01566406 17.85523437 -34.28320312 17.13671875 C-32.52869286 15.4175342 -30.76756648 13.70574128 -29 12 C-26.0185288 13.42306228 -23.97627435 14.86382277 -21.625 17.1875 C-18.78329466 19.70217402 -18.78329466 19.70217402 -15 20.0625 C-11.58853282 18.85427204 -8.31987703 17.44070135 -5 16 C-4.01 16 -3.02 16 -2 16 C-1.90912109 14.77023438 -1.90912109 14.77023438 -1.81640625 13.515625 C-1.73261719 12.43796875 -1.64882812 11.3603125 -1.5625 10.25 C-1.48128906 9.18265625 -1.40007812 8.1153125 -1.31640625 7.015625 C-1 4 -1 4 0 0 Z M5 8 C4.76518307 10.18292774 4.58636677 12.37203174 4.4375 14.5625 C4.35371094 15.76003906 4.26992187 16.95757812 4.18359375 18.19140625 C4.09271484 19.58166016 4.09271484 19.58166016 4 21 C2.72125 21.226875 1.4425 21.45375 0.125 21.6875 C-4.64097345 22.72063032 -8.57901825 24.63863542 -12.8359375 26.9765625 C-15 28 -15 28 -18 28 C-20.26171875 26.46875 -20.26171875 26.46875 -22.6875 24.5 C-23.49574219 23.8503125 -24.30398437 23.200625 -25.13671875 22.53125 C-26.05904297 21.77328125 -26.05904297 21.77328125 -27 21 C-29.96810069 22.32919292 -32.00563789 23.77862143 -34.25 26.125 C-35.61125 27.548125 -35.61125 27.548125 -37 29 C-35.76128424 31.81526309 -34.19996559 34.03622433 -32.3125 36.4375 C-30.00891702 39.6611531 -30.00891702 39.6611531 -29.9375 42.375 C-31.19551128 45.48302786 -32.5760802 48.51780923 -34.0625 51.5234375 C-35.35481466 54.66527415 -35.35481466 54.66527415 -36 61 C-40.95 61.33 -45.9 61.66 -51 62 C-51 66.62 -51 71.24 -51 76 C-49.44539063 76.13341797 -49.44539063 76.13341797 -47.859375 76.26953125 C-43.65458713 76.77167242 -39.97328424 77.47546811 -36 79 C-34.02124116 81.74682971 -33.34782293 83.91974713 -32.640625 87.2109375 C-32.14605808 90.09044847 -32.14605808 90.09044847 -30.359375 92.5390625 C-29 95 -29 95 -29.08984375 97.54296875 C-30.14974897 100.40425796 -31.48712808 102.08619194 -33.5625 104.3125 C-34.20316406 105.00988281 -34.84382813 105.70726562 -35.50390625 106.42578125 C-35.99761719 106.94527344 -36.49132812 107.46476562 -37 108 C-36.04270084 109.12588014 -35.08412105 110.2506715 -34.125 111.375 C-33.59132813 112.00148438 -33.05765625 112.62796875 -32.5078125 113.2734375 C-31.38567993 114.55836651 -30.20628025 115.79371975 -29 117 C-24.63884797 116.58509124 -21.6703879 113.66605537 -18.31640625 111.08203125 C-16 110 -16 110 -13.53125 110.6953125 C-12.6959375 111.12585938 -11.860625 111.55640625 -11 112 C-9.31303873 112.68882086 -7.6255397 113.37632621 -5.9375 114.0625 C-4.68259766 114.57490234 -4.68259766 114.57490234 -3.40234375 115.09765625 C-1.27639177 115.89618456 0.78686571 116.50421703 3 117 C3.06058594 117.75925781 3.12117188 118.51851563 3.18359375 119.30078125 C3.26738281 120.29464844 3.35117188 121.28851563 3.4375 122.3125 C3.51871094 123.29863281 3.59992188 124.28476563 3.68359375 125.30078125 C3.91812559 128.09375599 3.91812559 128.09375599 5 131 C9.29 131 13.58 131 18 131 C18.33 129.453125 18.66 127.90625 19 126.3125 C19.2784375 125.00732422 19.2784375 125.00732422 19.5625 123.67578125 C19.98972047 121.06287036 20.07616201 118.64186962 20 116 C21.11375 115.938125 22.2275 115.87625 23.375 115.8125 C28.08232459 115.26805854 31.63762657 113.30442545 35.703125 110.9609375 C38 110 38 110 40 110.12890625 C42.59391867 111.25867942 44.55218138 112.78485259 46.75 114.5625 C47.54921875 115.20316406 48.3484375 115.84382813 49.171875 116.50390625 C49.77515625 116.99761719 50.3784375 117.49132812 51 118 C53.96810069 116.67080708 56.00563789 115.22137857 58.25 112.875 C59.1575 111.92625 60.065 110.9775 61 110 C59.5949983 105.50399457 57.10585245 102.54243765 54.046875 99.0625 C53 97 53 97 53.6953125 94.59765625 C54.12585938 93.74042969 54.55640625 92.88320312 55 92 C55.71902525 90.14995329 56.42721946 88.29566373 57.125 86.4375 C57.47820312 85.50808594 57.83140625 84.57867187 58.1953125 83.62109375 C59.19565674 80.81966326 59.19565674 80.81966326 59 77 C66.92 76.505 66.92 76.505 75 76 C75 71.38 75 66.76 75 62 C69.72 61.34 64.44 60.68 59 60 C58.505 56.04 58.505 56.04 58 52 C56.87453837 48.83381748 56.87453837 48.83381748 55.4375 46 C54.633125 44.35 53.82875 42.7 53 41 C55.64 37.7 58.28 34.4 61 31 C60.05125 29.88625 59.1025 28.7725 58.125 27.625 C57.59132813 26.99851562 57.05765625 26.37203125 56.5078125 25.7265625 C55.38567993 24.44163349 54.20628025 23.20628025 53 22 C49.07412566 22.43353214 46.80505629 24.58136804 43.87890625 27.0390625 C41.1747602 28.42205611 39.88379571 27.88954961 37 27 C33.96379917 25.75729195 30.98189794 24.44032162 27.99609375 23.08398438 C25.13961094 21.81546029 23.16482707 21 20 21 C19.67 16.38 19.34 11.76 19 7 C16.875625 6.979375 14.75125 6.95875 12.5625 6.9375 C10.77005859 6.92009766 10.77005859 6.92009766 8.94140625 6.90234375 C6.11126659 6.66098208 6.11126659 6.66098208 5 8 Z " fill="#E9E4EC" transform="translate(126,23)"/>
<path d="M0 0 C11.57142857 0 11.57142857 0 15 3 C17.12822731 5.61191533 17.11561921 7.7576561 16.875 11 C16.28942913 14.78857295 15.11519452 16.64000415 12 19 C10 20 10 20 0 20 C0 13.4 0 6.8 0 0 Z " fill="#F9F8FE" transform="translate(158,82)"/>
<path d="M0 0 C10 0 10 0 14 3 C14.4071827 6.18959781 14.51483719 8.16000247 12.8125 10.9375 C11.62881971 13.27248442 11.62881971 13.27248442 13.375 16.75 C13.91125 17.8225 14.4475 18.895 15 20 C13.35 20 11.7 20 10 20 C9.566875 19.030625 9.13375 18.06125 8.6875 17.0625 C7.2985139 13.72268235 7.2985139 13.72268235 4 13 C4 15.31 4 17.62 4 20 C2.68 20 1.36 20 0 20 C0 13.4 0 6.8 0 0 Z " fill="#F9F8FE" transform="translate(121,82)"/>
<path d="M0 0 C1.32 0 2.64 0 4 0 C4.33 4.95 4.66 9.9 5 15 C6.65 15.33 8.3 15.66 10 16 C10.33 10.72 10.66 5.44 11 0 C12.65 0 14.3 0 16 0 C16.05411124 2.41696872 16.09372278 4.83271787 16.125 7.25 C16.15013672 8.27287109 16.15013672 8.27287109 16.17578125 9.31640625 C16.21185049 13.0315375 16.18812735 15.90907884 14 19 C11.68566978 20.15716511 10.13939188 20.23210436 7.5625 20.3125 C6.38880859 20.36857422 6.38880859 20.36857422 5.19140625 20.42578125 C3 20 3 20 1.2265625 18.49609375 C-0.51448924 14.95299801 -0.32019563 11.60157581 -0.1875 7.75 C-0.17396484 7.00492187 -0.16042969 6.25984375 -0.14648438 5.4921875 C-0.11127204 3.66114584 -0.05746851 1.83047831 0 0 Z " fill="#F8F7FE" transform="translate(138,82)"/>
<path d="M0 0 C2.5 1.8125 2.5 1.8125 4 4 C4 4.99 4 5.98 4 7 C2.68 7 1.36 7 0 7 C-0.66 6.01 -1.32 5.02 -2 4 C-5.29075996 4.37904208 -5.29075996 4.37904208 -8 6 C-8.07205511 7.68608966 -8.08386068 9.37500659 -8.0625 11.0625 C-8.04896484 12.44115234 -8.04896484 12.44115234 -8.03515625 13.84765625 C-8.02355469 14.55792969 -8.01195313 15.26820312 -8 16 C-5.08347826 16.16681109 -5.08347826 16.16681109 -2 16 C-1.34 15.34 -0.68 14.68 0 14 C2.125 14.375 2.125 14.375 4 15 C2.5625 17.5 2.5625 17.5 0 20 C-4.20393424 20.93335054 -7.73303704 20.64893225 -11.5625 18.6875 C-13.92886207 14.26343178 -13.81707432 9.88798441 -13 5 C-9.50369752 -0.57223207 -6.10548903 -0.87221272 0 0 Z " fill="#FBFAFF" transform="translate(114,82)"/>
<path d="M0 0 C1.98 0 3.96 0 6 0 C8 2 8 2 8.265625 3.875 C8.26046875 4.57625 8.2553125 5.2775 8.25 6 C8.25515625 6.70125 8.2603125 7.4025 8.265625 8.125 C8 10 8 10 6 12 C4.02 12 2.04 12 0 12 C0 8.04 0 4.08 0 0 Z " fill="#A78FFE" transform="translate(162,86)"/>
<path d="M0 0 C1.65 0 3.3 0 5 0 C5 1.65 5 3.3 5 5 C3.35 5 1.7 5 0 5 C0 3.35 0 1.7 0 0 Z " fill="#A68DFD" transform="translate(125,86)"/>
</svg>
